<svg xmlns="http://www.w3.org/2000/svg" width="4726" height="4725" viewBox="0 0 1133.86 1133.86" role="img" aria-labelledby="title desc">
<title id="title">P&amp;J Compound Company Limited logo 02</title>
<desc id="desc">Vector logo with outlined lettering. Layout faithfully follows JPG preview 02.</desc>
<g id="logo-mark">
<path transform="matrix(1,0,0,-1,476.9708,592.9041)" d="M0 0V18.119C26.602 18.119 48.245 39.762 48.245 66.364V118.512H66.364V66.364C66.364 29.771 36.593 0 0 0" fill="#125690"/>
<path transform="matrix(1,0,0,-1,554.6525,434.6272)" d="M0 0C0-11.254-9.123-20.377-20.377-20.377-31.631-20.377-40.755-11.254-40.755 0-40.755 11.254-31.631 20.377-20.377 20.377-9.123 20.377 0 11.254 0 0" fill="#ef7e1b"/>
<path transform="matrix(1,0,0,-1,561.004,375.0642)" d="M0 0C-63.454 0-115.076-51.623-115.076-115.076-115.076-178.53-63.454-230.152 0-230.152 63.453-230.152 115.076-178.53 115.076-115.076 115.076-51.623 63.453 0 0 0M0-248.272C-73.444-248.272-133.195-188.521-133.195-115.076-133.195-41.632-73.444 18.119 0 18.119 73.444 18.119 133.195-41.632 133.195-115.076 133.195-188.521 73.444-248.272 0-248.272" fill="#125690"/>
<path transform="matrix(1,0,0,-1,517.2472,465.33277)" d="M0 0C-25.578 0-46.389-20.811-46.389-46.389H-28.27C-28.27-30.801-15.588-18.119 0-18.119H52.549V0Z" fill="#125690"/>
<path transform="matrix(1,0,0,-1,596.7921,483.4519)" d="M0 0H7.072V18.119H0-18.119-26.996V0H-18.119Z" fill="#125690"/>
<path transform="matrix(1,0,0,-1,596.7921,526.5398)" d="M0 0V36.052H-18.119V0C-18.119-36.593 11.651-66.364 48.245-66.364V-48.245C21.644-48.245 0-26.603 0 0" fill="#125690"/>
<path transform="matrix(1,0,0,-1,613.2814,465.33277)" d="M0 0H-9.417V-18.119H0C18.118-18.119 32.968-4.105 34.422 13.644H16.199C14.849 5.908 8.117 0 0 0" fill="#125690"/>
<path transform="matrix(1,0,0,-1,613.2736,414.24928)" d="M0 0C-19.078 0-34.601-15.522-34.601-34.602V-44.048H-16.481V-34.602C-16.481-25.514-9.088-18.12 .008-18.12 7.644-18.12 14.067-23.345 15.931-30.404H34.278C32.194-13.306 17.659 0 0 0" fill="#ef7e1b"/>
</g>
<g id="outlined-company-name" aria-label="P&amp;J Compound Company Limited">
<path d="M1580 834Q1580 745 1558.0 675.0Q1536 605 1498.5 551.5Q1461 498 1412.0 460.0Q1363 422 1309.5 398.0Q1256 374 1201.5 363.0Q1147 352 1099 352H511V612H1099Q1149 616 1189.5 632.5Q1230 649 1259.0 677.0Q1288 705 1304.0 744.5Q1320 784 1320 834V952Q1315 1001 1299.0 1042.0Q1283 1083 1255.5 1112.0Q1228 1141 1189.0 1157.5Q1150 1174 1099 1174H513Q461 1174 434.0 1147.0Q407 1120 407 1069V0H147V1069Q147 1169 183.5 1239.0Q220 1309 274.5 1352.0Q329 1395 393.0 1414.5Q457 1434 511 1434H1099Q1187 1434 1257.0 1411.5Q1327 1389 1380.5 1351.5Q1434 1314 1471.5 1265.0Q1509 1216 1533.5 1162.5Q1558 1109 1569.0 1054.5Q1580 1000 1580 952ZM2949 365H2832L2830 362Q2830 298 2813.5 247.0Q2797 196 2770.0 157.5Q2743 119 2707.0 91.0Q2671 63 2632.5 45.5Q2594 28 2554.5 20.0Q2515 12 2480 12H2127Q2034 12 1968.5 47.0Q1903 82 1860.5 134.0Q1818 186 1797.5 247.0Q1777 308 1775 360V481Q1775 560 1797.5 617.5Q1820 675 1857 717Q1814 771 1794.5 834.0Q1775 897 1775 952Q1775 1049 1810.0 1116.0Q1845 1183 1898.0 1224.5Q1951 1266 2012.5 1284.5Q2074 1303 2127 1303H2713V1069H2127Q2100 1069 2078.5 1060.5Q2057 1052 2041.5 1036.0Q2026 1020 2018.0 998.5Q2010 977 2011 952Q2011 895 2043.0 864.5Q2075 834 2127 834H2480V600H2127Q2072 600 2041.5 566.0Q2011 532 2011 481V369Q2011 315 2043.5 281.5Q2076 248 2127 248H2478Q2533 248 2564.5 281.0Q2596 314 2596 365Q2596 408 2611.0 450.0Q2626 492 2656.0 525.5Q2686 559 2729.5 579.5Q2773 600 2830 600H2949ZM4383 365Q4383 287 4356.0 220.0Q4329 153 4280.5 104.0Q4232 55 4165.0 27.5Q4098 0 4019 0H3066V260H4019Q4067 260 4094.0 287.5Q4121 315 4121 365V1434H4383ZM6631 0H5693Q5657 0 5615.5 8.5Q5574 17 5533.5 35.0Q5493 53 5456.0 81.5Q5419 110 5390.5 150.5Q5362 191 5345.0 244.5Q5328 298 5328 365V1069Q5328 1105 5336.5 1146.5Q5345 1188 5363.0 1228.5Q5381 1269 5410.0 1306.0Q5439 1343 5479.5 1371.5Q5520 1400 5573.0 1417.0Q5626 1434 5693 1434H6631V1174H5693Q5642 1174 5615.0 1147.0Q5588 1120 5588 1067V365Q5588 315 5615.5 287.5Q5643 260 5693 260H6631ZM8024 365Q8024 298 8007.0 244.5Q7990 191 7962.0 150.5Q7934 110 7897.0 81.5Q7860 53 7819.5 35.0Q7779 17 7737.5 8.5Q7696 0 7659 0H7190Q7136 0 7072.0 19.0Q7008 38 6953.5 81.5Q6899 125 6862.5 194.5Q6826 264 6826 365V717Q6826 817 6862.5 886.5Q6899 956 6953.5 999.5Q7008 1043 7072.0 1062.0Q7136 1081 7190 1081H7659Q7759 1081 7829.0 1045.0Q7899 1009 7942.0 954.5Q7985 900 8004.5 836.0Q8024 772 8024 717ZM7764 715Q7764 769 7737.0 795.0Q7710 821 7659 821H7192Q7140 821 7113.0 794.5Q7086 768 7086 717V365Q7086 314 7113.0 287.0Q7140 260 7192 260H7659Q7712 260 7738.0 287.0Q7764 314 7764 365ZM9210 0H8950V717Q8950 768 8923.0 794.5Q8896 821 8843 821H8505V0H8245V952Q8245 979 8255.0 1002.5Q8265 1026 8283.0 1043.5Q8301 1061 8325.0 1071.0Q8349 1081 8376 1081H8845Q8899 1081 8961.0 1062.0Q9023 1043 9079 1001V1081H9431Q9468 1081 9509.0 1072.5Q9550 1064 9590.5 1046.0Q9631 1028 9668.0 999.5Q9705 971 9733.0 930.5Q9761 890 9778.0 837.0Q9795 784 9795 717V0H9535V717Q9535 768 9509.5 794.5Q9484 821 9431 821H9197Q9210 773 9210 717ZM11226 365Q11226 298 11209.0 244.5Q11192 191 11164.0 150.5Q11136 110 11099.0 81.5Q11062 53 11021.5 35.0Q10981 17 10940.0 8.5Q10899 0 10862 0H10393V260H10862Q10914 260 10940.0 287.0Q10966 314 10966 365V715Q10966 769 10939.5 795.0Q10913 821 10862 821H10395Q10342 821 10315.0 794.5Q10288 768 10288 717V-338H10028V717Q10028 784 10045.0 837.0Q10062 890 10090.5 930.5Q10119 971 10156.0 999.5Q10193 1028 10233.5 1046.0Q10274 1064 10315.5 1072.5Q10357 1081 10393 1081H10862Q10929 1081 10982.0 1064.0Q11035 1047 11075.5 1019.0Q11116 991 11144.5 954.0Q11173 917 11191.0 876.5Q11209 836 11217.5 795.0Q11226 754 11226 717ZM12624 365Q12624 298 12607.0 244.5Q12590 191 12562.0 150.5Q12534 110 12497.0 81.5Q12460 53 12419.5 35.0Q12379 17 12337.5 8.5Q12296 0 12259 0H11790Q11736 0 11672.0 19.0Q11608 38 11553.5 81.5Q11499 125 11462.5 194.5Q11426 264 11426 365V717Q11426 817 11462.5 886.5Q11499 956 11553.5 999.5Q11608 1043 11672.0 1062.0Q11736 1081 11790 1081H12259Q12359 1081 12429.0 1045.0Q12499 1009 12542.0 954.5Q12585 900 12604.5 836.0Q12624 772 12624 717ZM12364 715Q12364 769 12337.0 795.0Q12310 821 12259 821H11792Q11740 821 11713.0 794.5Q11686 768 11686 717V365Q11686 314 11713.0 287.0Q11740 260 11792 260H12259Q12312 260 12338.0 287.0Q12364 314 12364 365ZM14027 131Q14027 103 14017.0 79.0Q14007 55 13989.5 37.5Q13972 20 13948.5 10.0Q13925 0 13898 0H13310Q13262 0 13207.5 11.0Q13153 22 13100.0 46.5Q13047 71 12997.5 108.5Q12948 146 12911.0 199.5Q12874 253 12851.5 323.0Q12829 393 12829 481V1081H13089V481Q13089 430 13106.5 389.5Q13124 349 13154.0 320.0Q13184 291 13224.5 275.5Q13265 260 13312 260H13767V1081H14027ZM15469 0H15209V600Q15209 651 15191.5 691.5Q15174 732 15144.0 761.0Q15114 790 15073.5 805.5Q15033 821 14986 821H14531V0H14271V952Q14271 979 14281.0 1002.5Q14291 1026 14309.0 1043.5Q14327 1061 14351.0 1071.0Q14375 1081 14402 1081H14988Q15037 1081 15091.5 1070.0Q15146 1059 15199.5 1034.5Q15253 1010 15301.5 972.5Q15350 935 15387.5 881.5Q15425 828 15447.0 758.0Q15469 688 15469 600ZM16883 365Q16883 298 16866.0 244.5Q16849 191 16821.0 150.5Q16793 110 16756.0 81.5Q16719 53 16678.5 35.0Q16638 17 16596.5 8.5Q16555 0 16518 0H16049Q15982 0 15929.0 17.0Q15876 34 15835.5 62.5Q15795 91 15766.5 128.0Q15738 165 15720.0 205.5Q15702 246 15693.5 287.5Q15685 329 15685 365V717Q15685 817 15721.5 886.5Q15758 956 15812.5 999.5Q15867 1043 15931.0 1062.0Q15995 1081 16049 1081H16518V821H16051Q15999 821 15972.0 794.5Q15945 768 15945 717V367Q15945 314 15971.5 287.0Q15998 260 16049 260H16518Q16571 260 16597.0 287.0Q16623 314 16623 365V1538H16883Z" transform="translate(307.57551,706.14428) scale(0.03045854,-0.03045854)" fill="#000000"/>
<path d="M1087 539 1374 448Q1308 208 1154.5 91.5Q1001 -25 765 -25Q473 -25 285.0 174.5Q97 374 97 720Q97 1086 286.0 1288.5Q475 1491 783 1491Q1052 1491 1220 1332Q1320 1238 1370 1062L1077 992Q1051 1106 968.5 1172.0Q886 1238 768 1238Q605 1238 503.5 1121.0Q402 1004 402 742Q402 464 502.0 346.0Q602 228 762 228Q880 228 965.0 303.0Q1050 378 1087 539ZM1561 546Q1561 686 1630.0 817.0Q1699 948 1825.5 1017.0Q1952 1086 2108 1086Q2349 1086 2503.0 929.5Q2657 773 2657 534Q2657 293 2501.5 134.5Q2346 -24 2110 -24Q1964 -24 1831.5 42.0Q1699 108 1630.0 235.5Q1561 363 1561 546ZM1849 531Q1849 373 1924.0 289.0Q1999 205 2109 205Q2219 205 2293.5 289.0Q2368 373 2368 533Q2368 689 2293.5 773.0Q2219 857 2109 857Q1999 857 1924.0 773.0Q1849 689 1849 531ZM2856 1062H3115V917Q3254 1086 3446 1086Q3548 1086 3623.0 1044.0Q3698 1002 3746 917Q3816 1002 3897.0 1044.0Q3978 1086 4070 1086Q4187 1086 4268.0 1038.5Q4349 991 4389 899Q4418 831 4418 679V0H4137V607Q4137 765 4108 811Q4069 871 3988 871Q3929 871 3877.0 835.0Q3825 799 3802.0 729.5Q3779 660 3779 510V0H3498V582Q3498 737 3483.0 782.0Q3468 827 3436.5 849.0Q3405 871 3351 871Q3286 871 3234.0 836.0Q3182 801 3159.5 735.0Q3137 669 3137 516V0H2856ZM4690 1062H4952V906Q5003 986 5090.0 1036.0Q5177 1086 5283 1086Q5468 1086 5597.0 941.0Q5726 796 5726 537Q5726 271 5596.0 123.5Q5466 -24 5281 -24Q5193 -24 5121.5 11.0Q5050 46 4971 131V-404H4690ZM4968 549Q4968 370 5039.0 284.5Q5110 199 5212 199Q5310 199 5375.0 277.5Q5440 356 5440 535Q5440 702 5373.0 783.0Q5306 864 5207 864Q5104 864 5036.0 784.5Q4968 705 4968 549ZM6159 738 5904 784Q5947 938 6052.0 1012.0Q6157 1086 6364 1086Q6552 1086 6644.0 1041.5Q6736 997 6773.5 928.5Q6811 860 6811 677L6808 349Q6808 209 6821.5 142.5Q6835 76 6872 0H6594Q6583 28 6567 83Q6560 108 6557 116Q6485 46 6403.0 11.0Q6321 -24 6228 -24Q6064 -24 5969.5 65.0Q5875 154 5875 290Q5875 380 5918.0 450.5Q5961 521 6038.5 558.5Q6116 596 6262 624Q6459 661 6535 693V721Q6535 802 6495.0 836.5Q6455 871 6344 871Q6269 871 6227.0 841.5Q6185 812 6159 738ZM6535 510Q6481 492 6364.0 467.0Q6247 442 6211 418Q6156 379 6156 319Q6156 260 6200.0 217.0Q6244 174 6312 174Q6388 174 6457 224Q6508 262 6524 317Q6535 353 6535 454ZM8054 0H7773V542Q7773 714 7755.0 764.5Q7737 815 7696.5 843.0Q7656 871 7599 871Q7526 871 7468.0 831.0Q7410 791 7388.5 725.0Q7367 659 7367 481V0H7086V1062H7347V906Q7486 1086 7697 1086Q7790 1086 7867.0 1052.5Q7944 1019 7983.5 967.0Q8023 915 8038.5 849.0Q8054 783 8054 660ZM8206 1062H8505L8759 308L9007 1062H9298L8923 40L8856 -145Q8819 -238 8785.5 -287.0Q8752 -336 8708.5 -366.5Q8665 -397 8601.5 -414.0Q8538 -431 8458 -431Q8377 -431 8299 -414L8274 -194Q8340 -207 8393 -207Q8491 -207 8538.0 -149.5Q8585 -92 8610 -3ZM10057 0V1454H10353V247H11089V0ZM11298 1206V1466H11579V1206ZM11298 0V1062H11579V0ZM11846 1062H12105V917Q12244 1086 12436 1086Q12538 1086 12613.0 1044.0Q12688 1002 12736 917Q12806 1002 12887.0 1044.0Q12968 1086 13060 1086Q13177 1086 13258.0 1038.5Q13339 991 13379 899Q13408 831 13408 679V0H13127V607Q13127 765 13098 811Q13059 871 12978 871Q12919 871 12867.0 835.0Q12815 799 12792.0 729.5Q12769 660 12769 510V0H12488V582Q12488 737 12473.0 782.0Q12458 827 12426.5 849.0Q12395 871 12341 871Q12276 871 12224.0 836.0Q12172 801 12149.5 735.0Q12127 669 12127 516V0H11846ZM13688 1206V1466H13969V1206ZM13688 0V1062H13969V0ZM14744 1062V838H14552V410Q14552 280 14557.5 258.5Q14563 237 14582.5 223.0Q14602 209 14630 209Q14669 209 14743 236L14767 18Q14669 -24 14545 -24Q14469 -24 14408.0 1.5Q14347 27 14318.5 67.5Q14290 108 14279 177Q14270 226 14270 375V838H14141V1062H14270V1273L14552 1437V1062ZM15554 338 15834 291Q15780 137 15663.5 56.5Q15547 -24 15372 -24Q15095 -24 14962 157Q14857 302 14857 523Q14857 787 14995.0 936.5Q15133 1086 15344 1086Q15581 1086 15718.0 929.5Q15855 773 15849 450H15145Q15148 325 15213.0 255.5Q15278 186 15375 186Q15441 186 15486.0 222.0Q15531 258 15554 338ZM15570 622Q15567 744 15507.0 807.5Q15447 871 15361 871Q15269 871 15209 804Q15149 737 15150 622ZM17052 0H16791V156Q16726 65 16637.5 20.5Q16549 -24 16459 -24Q16276 -24 16145.5 123.5Q16015 271 16015 535Q16015 805 16142.0 945.5Q16269 1086 16463 1086Q16641 1086 16771 938V1466H17052ZM16302 554Q16302 384 16349 308Q16417 198 16539 198Q16636 198 16704.0 280.5Q16772 363 16772 527Q16772 710 16706.0 790.5Q16640 871 16537 871Q16437 871 16369.5 791.5Q16302 712 16302 554Z" transform="translate(386.12224,763.19501) scale(0.02108668,-0.02108668)" fill="#000000"/>
</g>
</svg>
